<?xml version="1.0" encoding="UTF-8"?>
<!DOCTYPE svg PUBLIC "-//W3C//DTD SVG 1.1//EN" "http://www.w3.org/Graphics/SVG/1.1/DTD/svg11.dtd">
<!-- Creator: CorelDRAW -->
<svg xmlns="http://www.w3.org/2000/svg" xml:space="preserve" width="106.701mm" height="28.7934mm" version="1.1" style="shape-rendering:geometricPrecision; text-rendering:geometricPrecision; image-rendering:optimizeQuality; fill-rule:evenodd; clip-rule:evenodd"
viewBox="0 0 2917.5 787.29"
 xmlns:xlink="http://www.w3.org/1999/xlink"
 xmlns:xodm="http://www.corel.com/coreldraw/odm/2003">
 <defs>
  <style type="text/css">
   <![CDATA[
    .fil1 {fill:#E5097F;fill-rule:nonzero}
    .fil0 {fill:white;fill-rule:nonzero}
   ]]>
  </style>
 </defs>
 <g id="Слой_x0020_1">
  <metadata id="CorelCorpID_0Corel-Layer"/>
  <g id="_1613811163872">
   <polygon class="fil0" points="-0,787.29 347.53,0 566.85,0 738.18,398 528.94,398 411.64,109.1 499.36,109.1 354.47,470.12 557.56,470.12 622.6,634.33 288.58,634.33 227.19,787.29 "/>
   <polygon class="fil1" points="872.85,706.46 908.13,787.29 683.44,787.29 651.37,706.46 "/>
   <path class="fil0" d="M1312.09 12.68l80.08 0 110.86 329.63 -73.74 0 -22.22 -67.15 -110.12 0 -21.98 67.15 -73.98 0 111.1 -329.63zm74.47 199.48l-34.67 -105.24 -34.43 105.24 69.1 0zm142.11 -199.48l72.76 0 0 259.06 138.94 0 0 70.56 -211.69 0 0 -329.63zm343.3 0l80.08 0 110.86 329.63 -73.74 0 -22.22 -67.15 -110.13 0 -21.98 67.15 -73.98 0 111.1 -329.63zm74.47 199.48l-34.67 -105.24 -34.43 105.24 69.1 0zm142.11 59.58l140.4 -188.5 -140.4 0 0 -70.56 225.12 0 0 70.56 -140.65 188.5 140.65 0 0 70.56 -225.12 0 0 -70.56zm361.86 -259.06l80.09 0 110.85 329.63 -73.74 0 -22.22 -67.15 -110.11 0 -21.98 67.15 -73.99 0 111.1 -329.63zm74.47 199.48l-34.67 -105.24 -34.43 105.24 69.09 0zm377.98 -58.11c0,17.09 -3.99,31.74 -11.97,43.95 -7.97,12.21 -19.04,20.92 -33.2,26.13l59.82 118.18 -79.6 0 -54.94 -113.29 -43.22 0 0 113.29 -72.77 0 0 -329.63 160.91 0c22.79,0 41.02,6.76 54.7,20.27 13.51,13.67 20.27,31.9 20.27,54.69l0 66.42zm-163.1 9.77l74.46 0c5.54,0 9.61,-1.3 12.21,-3.91 2.44,-2.44 3.66,-6.43 3.66,-11.97l0 -48.83c0,-5.53 -1.22,-9.6 -3.66,-12.21 -2.6,-2.44 -6.67,-3.66 -12.21,-3.66l-74.46 0 0 80.58zm-1433.28 479.44c-22.79,0 -40.94,-6.84 -54.45,-20.51 -13.68,-13.51 -20.51,-31.66 -20.51,-54.45l0 -48.34c0,-22.79 6.83,-41.02 20.51,-54.69 13.51,-13.51 31.66,-20.26 54.45,-20.26l88.39 0c22.78,0 41.02,6.76 54.69,20.26 13.51,13.67 20.26,31.91 20.26,54.69l0 22.46 -72.76 0 0 -11.23c0,-5.7 -1.22,-9.77 -3.66,-12.21 -2.6,-2.44 -6.68,-3.66 -12.21,-3.66l-61.04 0c-5.53,0 -9.52,1.22 -11.97,3.66 -2.61,2.44 -3.91,6.51 -3.91,12.21l0 27.83c0,5.7 1.3,9.77 3.91,12.21 2.44,2.44 6.43,3.66 11.97,3.66l74.72 0c22.78,0 41.02,6.76 54.69,20.27 13.51,13.67 20.26,31.91 20.26,54.69l0 49.82c0,22.79 -6.75,40.94 -20.26,54.44 -13.67,13.68 -31.91,20.51 -54.69,20.51l-88.39 0c-22.79,0 -40.94,-6.84 -54.45,-20.51 -13.68,-13.51 -20.51,-31.66 -20.51,-54.44l0 -23.44 72.76 0 0 12.21c0,5.7 1.3,9.77 3.91,12.21 2.44,2.44 6.43,3.66 11.97,3.66l61.04 0c5.54,0 9.61,-1.22 12.21,-3.66 2.44,-2.44 3.66,-6.51 3.66,-12.21l0 -29.3c0,-5.7 -1.22,-9.77 -3.66,-12.21 -2.6,-2.44 -6.68,-3.66 -12.21,-3.66l-74.71 0zm297.65 -127.7l-88.15 0 0 -70.56 249.06 0 0 70.56 -88.15 0 0 259.06 -72.76 0 0 -259.06zm441.21 184.11c0,22.79 -6.76,40.94 -20.27,54.44 -13.67,13.68 -31.9,20.51 -54.69,20.51l-83.99 0c-22.79,0 -40.94,-6.84 -54.45,-20.51 -13.68,-13.51 -20.51,-31.66 -20.51,-54.44l0 -254.67 72.77 0 0 243.19c0,5.53 1.3,9.52 3.9,11.97 2.44,2.61 6.43,3.91 11.96,3.91l56.41 0c5.7,0 9.84,-1.22 12.45,-3.66 2.44,-2.44 3.66,-6.51 3.66,-12.21l0 -243.19 72.77 0 0 254.67zm290.31 0c0,22.79 -6.75,40.94 -20.26,54.44 -13.51,13.68 -31.66,20.51 -54.45,20.51l-159.44 0 0 -329.63 159.44 0c22.79,0 40.94,6.76 54.45,20.26 13.51,13.67 20.26,31.91 20.26,54.69l0 179.71zm-88.63 4.39c5.7,0 9.77,-1.3 12.21,-3.91 2.44,-2.44 3.67,-6.43 3.67,-11.97l0 -156.76c0,-5.53 -1.22,-9.61 -3.67,-12.21 -2.44,-2.44 -6.51,-3.66 -12.21,-3.66l-72.76 0 0 188.5 72.76 0zm151.14 -259.06l72.76 0 0 329.63 -72.76 0 0 -329.63zm370.4 254.67c0,22.79 -6.75,40.94 -20.27,54.44 -13.51,13.68 -31.66,20.51 -54.44,20.51l-85.46 0c-22.79,0 -40.94,-6.84 -54.45,-20.51 -13.68,-13.51 -20.51,-31.66 -20.51,-54.44l0 -179.71c0,-22.79 6.83,-41.02 20.51,-54.69 13.51,-13.51 31.66,-20.26 54.45,-20.26l85.46 0c22.78,0 40.94,6.76 54.44,20.26 13.51,13.67 20.27,31.91 20.27,54.69l0 179.71zm-162.37 -11.48c0,5.53 1.3,9.52 3.91,11.97 2.44,2.61 6.43,3.91 11.97,3.91l57.87 0c5.69,0 9.76,-1.3 12.21,-3.91 2.44,-2.44 3.66,-6.43 3.66,-11.97l0 -156.76c0,-5.53 -1.22,-9.61 -3.66,-12.21 -2.45,-2.44 -6.52,-3.66 -12.21,-3.66l-57.87 0c-5.53,0 -9.52,1.22 -11.97,3.66 -2.61,2.6 -3.91,6.67 -3.91,12.21l0 156.76z"/>
  </g>
 </g>
</svg>
